<svg width="53" height="56" viewBox="0 0 53 56" fill="none" xmlns="http://www.w3.org/2000/svg">
<path d="M28.0246 5.63054C-0.569129 9.90986 -2.13969 34.1702 6.62794 44.7768C26.5513 64.8063 37.291 53.2945 48.6177 41.9678C61.0026 29.5829 43.5863 3.30159 28.0246 5.63054Z" fill="#ED8074"/>
<circle cx="26.5248" cy="26.0048" r="24.5301" stroke="#1F1F1F" stroke-width="2"/>
<path d="M20.5812 34.612L14.4624 36.2223L18.0049 37.8325L22.5135 38.1545L25.734 37.8325L30.2426 35.9002L33.463 33.9679L36.0394 31.0695L37.3276 27.8491L38.2937 25.5948L38.9378 23.0184L39.2598 21.4082L43.1244 17.8657L39.9039 18.5098H38.2937L37.0055 17.2216L35.7173 16.2555L33.463 15.9334C32.8189 15.9334 31.7884 16.2555 31.5308 16.2555C31.2731 16.2555 30.5646 16.6849 30.2426 16.8996L28.9544 18.8319L27.9883 20.7641L27.6662 22.0523H26.7001H26.378L23.8017 21.4082L21.8694 20.442L18.971 18.1877L16.0726 14.9673L15.7506 17.5437V20.12L16.0726 23.0184L16.3947 24.3066L17.0388 25.9168L18.0049 27.8491L18.3269 28.4932L19.2931 29.4593L20.5812 30.7475L23.1576 33.0018L20.5812 34.612Z" fill="white"/>
<path d="M21.9097 38.8292C18.9261 38.8297 15.9913 38.0723 13.3805 36.6282C13.2778 36.5709 13.1969 36.4814 13.1503 36.3734C13.1036 36.2655 13.0939 36.1452 13.1226 36.0311C13.1512 35.9171 13.2167 35.8157 13.3088 35.7426C13.4009 35.6696 13.5145 35.6289 13.6321 35.6269C16.6001 35.5856 19.5017 34.7423 22.0295 33.1863C19.1935 31.06 17.0644 28.1283 15.92 24.7736C14.7755 21.419 14.6688 17.7973 15.6139 14.3811C15.6413 14.2821 15.6967 14.1932 15.7735 14.125C15.8502 14.0568 15.945 14.0122 16.0465 13.9965C16.1479 13.9808 16.2518 13.9948 16.3455 14.0367C16.4393 14.0786 16.5189 14.1466 16.5749 14.2327C17.8288 16.1693 19.4751 17.8212 21.4075 19.0816C23.3399 20.342 25.5152 21.1828 27.793 21.5497C27.7805 21.3933 27.7743 21.2365 27.7743 21.0792C27.7744 19.8099 28.1862 18.5749 28.9477 17.5595C29.7092 16.544 30.7794 15.8029 31.9979 15.4472C33.2163 15.0915 34.5172 15.1405 35.7054 15.5869C36.8936 16.0332 37.9051 16.8528 38.588 17.9226C40.1159 17.8486 41.6261 17.5638 43.0759 17.0763C43.1824 17.0405 43.2974 17.0393 43.4046 17.0727C43.5118 17.1062 43.6057 17.1726 43.6729 17.2625C43.7402 17.3525 43.7773 17.4613 43.779 17.5736C43.7808 17.6859 43.7471 17.7958 43.6827 17.8878C42.5367 19.5291 41.1183 20.9622 39.4889 22.125C39.2586 26.632 37.306 30.8784 34.0346 33.987C30.7631 37.0957 26.4226 38.829 21.9097 38.8291V38.8292ZM15.6775 36.5463C17.6572 37.3491 19.7734 37.762 21.9097 37.7623C26.1923 37.7623 30.3079 36.1007 33.3901 33.1273C36.4722 30.1539 38.2805 26.1006 38.4343 21.8207C38.4372 21.7377 38.4595 21.6564 38.4994 21.5835C38.5394 21.5106 38.5958 21.448 38.6642 21.4007C39.8403 20.5888 40.9053 19.6267 41.8322 18.5388C40.6763 18.811 39.4959 18.9659 38.3089 19.001C38.2089 19.0039 38.1101 18.9787 38.0238 18.9282C37.9374 18.8777 37.867 18.8039 37.8206 18.7152C37.2565 17.7207 36.3561 16.9601 35.2813 16.5702C34.2064 16.1803 33.0278 16.1866 31.9572 16.5881C30.8867 16.9896 29.9945 17.7599 29.4411 18.7604C28.8877 19.7609 28.7095 20.926 28.9384 22.0462C28.9596 22.131 28.9595 22.2198 28.9384 22.3046C28.9172 22.3894 28.8756 22.4677 28.8171 22.5326C28.7586 22.5976 28.685 22.6471 28.6029 22.677C28.5207 22.7069 28.4325 22.7161 28.346 22.7039C25.9862 22.4246 23.7079 21.6686 21.6493 20.4818C19.5906 19.2951 17.7947 17.7023 16.3705 15.8002C15.7252 18.994 16.0363 22.3073 17.2647 25.3253C18.4932 28.3433 20.5845 30.9319 23.2769 32.7672C23.3487 32.8161 23.4074 32.8818 23.448 32.9586C23.4886 33.0354 23.5098 33.121 23.5098 33.2079C23.5098 33.2948 23.4886 33.3803 23.448 33.4571C23.4074 33.5339 23.3487 33.5997 23.2769 33.6486C21.0065 35.198 18.4031 36.1907 15.6775 36.5462V36.5463Z" fill="black"/>
</svg>
