<svg width="742" height="192" viewBox="0 0 742 192" fill="none" xmlns="http://www.w3.org/2000/svg">
<path fill-rule="evenodd" clip-rule="evenodd" d="M147.959 36.4286C128.687 17.3604 -13.6215 -40.5972 1.06039 88.7666C15.9671 220.113 119.577 197.18 151.477 171.012C183.377 144.844 192.843 113.026 183.584 88.7666C174.325 64.5068 167.23 55.4968 147.959 36.4286Z" fill="#EC7F72"/>
<path d="M99.6745 171.009C146.069 171.009 183.679 133.399 183.679 87.0047C183.679 40.6102 146.069 3 99.6745 3C53.28 3 15.6698 40.6102 15.6698 87.0047C15.6698 133.399 53.28 171.009 99.6745 171.009Z" stroke="black" stroke-width="4" stroke-miterlimit="1.5" stroke-linecap="round" stroke-linejoin="round"/>
<path d="M254.727 53.3715C254.727 52.6115 254.347 52.1048 253.714 51.9782C251.687 51.4715 249.66 51.3448 247.76 51.3448C238.007 51.3448 230.28 57.0448 230.28 68.6982V101.758C230.28 102.518 230.66 102.898 231.42 102.898H235.22C235.98 102.898 236.36 102.518 236.36 101.758V68.3182C236.36 59.7048 241.68 57.1715 247.76 57.1715C249.407 57.1715 251.18 57.2982 252.827 57.6782C253.714 57.8048 254.094 57.5515 254.094 56.7915L254.727 53.3715Z" fill="#040707"/>
<path d="M322.145 77.5806C322.145 59.9739 310.618 50.7272 295.798 50.7272C280.978 50.7272 269.452 59.9739 269.452 77.5806C269.452 95.1873 280.978 104.434 295.798 104.434C304.412 104.434 311.632 101.521 316.318 95.5673C316.698 95.1873 316.572 94.5539 316.065 94.1739L312.772 92.4006C312.138 92.1473 311.505 92.2739 310.998 92.7806C307.452 96.8339 302.385 98.8606 295.798 98.8606C283.512 98.8606 276.038 91.5139 275.532 78.9739H321.005C321.765 78.9739 322.145 78.5939 322.145 77.8339V77.5806ZM295.798 56.3005C307.072 56.3005 314.418 62.8872 315.812 73.6539H275.785C277.178 62.8872 284.272 56.3005 295.798 56.3005Z" fill="#040707"/>
<path d="M402.195 50.7272C393.708 50.7272 387.121 54.1472 383.701 60.7339C380.155 54.1472 373.695 50.7272 365.208 50.7272C352.161 50.7272 343.675 58.7072 343.675 73.9072V101.774C343.675 102.534 344.055 102.914 344.815 102.914H348.615C349.375 102.914 349.755 102.534 349.755 101.774V73.9072C349.755 62.7606 354.695 56.3005 365.208 56.3005C374.455 56.3005 380.281 62.3806 380.661 73.5272V101.774C380.661 102.534 381.041 102.914 381.801 102.914H385.601C386.361 102.914 386.741 102.534 386.741 101.774V73.4006C386.741 61.6206 392.568 56.3005 402.195 56.3005C412.708 56.3005 417.648 62.7606 417.648 73.9072V101.774C417.648 102.534 418.028 102.914 418.788 102.914H422.588C423.348 102.914 423.728 102.534 423.728 101.774V73.9072C423.728 58.7072 415.241 50.7272 402.195 50.7272Z" fill="#040707"/>
<path d="M478.462 50.7272C463.642 50.7272 452.115 59.9739 452.115 77.5806C452.115 95.1873 463.642 104.434 478.462 104.434C493.282 104.434 504.808 95.1873 504.808 77.5806C504.808 59.9739 493.282 50.7272 478.462 50.7272ZM478.462 98.8606C465.795 98.8606 458.195 90.7539 458.195 77.5806C458.195 64.4072 465.795 56.3005 478.462 56.3005C491.128 56.3005 498.728 64.4072 498.728 77.5806C498.728 90.7539 491.128 98.8606 478.462 98.8606Z" fill="#040707"/>
<path d="M553.82 53.3261V48.4177H543.567V30.4205H538.55V48.4177H528.188V53.3261H538.55V102.955H543.567V53.3261H553.82Z" fill="#040707"/>
<path d="M585.206 53.401C585.206 52.641 584.826 52.261 584.066 52.261H580.266C579.506 52.261 579.126 52.641 579.126 53.401V101.788C579.126 102.548 579.506 102.928 580.266 102.928H584.066C584.826 102.928 585.206 102.548 585.206 101.788V53.401ZM576.846 36.0477C576.846 39.4677 579.253 41.3677 582.166 41.3677C585.079 41.3677 587.486 38.961 587.486 36.0477C587.486 32.881 585.079 30.7277 582.166 30.7277C579.253 30.7277 576.846 32.881 576.846 36.0477Z" fill="#040707"/>
<path d="M603.704 92.0206C603.071 92.4006 602.818 92.9073 603.071 93.5406C605.731 101.141 614.218 104.434 622.071 104.434C632.204 104.434 642.844 100.634 642.844 89.3606C642.844 79.7339 632.331 76.4406 623.338 74.7939C615.611 73.1472 609.024 72.0072 609.024 66.1806C609.024 57.5672 618.018 56.3005 623.591 56.3005C628.784 56.4272 634.104 57.6939 637.144 63.6472C637.524 64.1539 638.158 64.6606 638.664 64.2806L641.704 63.1406C642.338 62.7606 642.591 62.3806 642.338 61.7472C638.664 53.2605 631.444 50.8539 623.338 50.7272C613.204 50.7272 602.818 55.1605 602.818 66.0539C602.818 76.5672 613.331 78.5939 622.071 80.2406C630.051 82.0139 636.764 83.1539 636.764 89.6139C636.764 97.3406 627.644 98.9873 621.944 98.9873C617.004 98.9873 610.798 96.5806 608.138 91.5139C607.631 90.8806 607.124 90.6273 606.618 90.8806L603.704 92.0206Z" fill="#040707"/>
<path d="M688.322 56.29C695.795 56.29 706.309 59.9633 706.309 76.05V101.763C706.309 102.523 706.689 102.903 707.449 102.903H711.249C712.009 102.903 712.389 102.523 712.389 101.763V76.05C712.389 59.4566 703.015 50.7166 688.829 50.7166C681.735 50.7166 674.262 53.5033 670.335 60.47V15.3766C670.335 14.6166 669.955 14.2366 669.195 14.2366H665.395C664.635 14.2366 664.255 14.6166 664.255 15.3766V101.763C664.255 102.523 664.635 102.903 665.395 102.903H669.195C669.955 102.903 670.335 102.523 670.335 101.763V75.9233C670.335 59.8366 681.862 56.29 688.322 56.29Z" fill="#040707"/>
<path d="M733.731 99.187C733.731 101.386 735.491 103.321 737.866 103.321C740.065 103.321 742 101.386 742 99.187C742 96.812 740.065 95.0527 737.866 95.0527C735.491 95.0527 733.731 96.812 733.731 99.187Z" fill="#040707"/>
<path d="M531.701 146.407C531.666 146.583 531.737 146.689 531.913 146.689H533.214C533.425 146.689 533.566 146.583 533.637 146.407L536.1 140.602H549.927L552.355 146.407C552.461 146.583 552.637 146.689 552.813 146.689H554.15C554.29 146.689 554.431 146.548 554.326 146.407L544.087 122.341C544.016 122.165 543.876 122.059 543.664 122.059H542.363C542.187 122.059 542.011 122.165 541.905 122.341L531.701 146.407ZM543.031 124.206L549.188 138.878H536.803L543.031 124.206Z" fill="#040707"/>
<path d="M576.907 145.075C575.442 145.075 574.076 144.815 572.806 144.262C571.537 143.708 570.43 142.927 569.454 141.983C568.51 141.04 567.729 139.901 567.176 138.631C566.622 137.329 566.362 135.995 566.362 134.563C566.362 133.098 566.622 131.731 567.176 130.462C567.729 129.193 568.51 128.086 569.454 127.142C570.43 126.199 571.537 125.45 572.839 124.897C574.108 124.343 575.475 124.083 576.94 124.083C578.176 124.083 579.315 124.278 580.39 124.734C581.464 125.157 582.44 125.71 583.351 126.394C583.481 126.459 583.612 126.524 583.742 126.524C583.839 126.524 583.905 126.491 584.002 126.459C584.067 126.394 584.1 126.361 584.132 126.329L584.653 125.613C584.718 125.548 584.751 125.45 584.783 125.32C584.816 125.19 584.718 125.027 584.49 124.864C583.416 124.018 582.277 123.367 581.008 122.879C579.771 122.423 578.404 122.163 576.907 122.163C575.215 122.163 573.587 122.488 572.058 123.139C570.561 123.79 569.226 124.669 568.12 125.775C566.98 126.915 566.102 128.216 565.451 129.714C564.8 131.211 564.474 132.838 564.474 134.563C564.474 136.255 564.8 137.883 565.418 139.38C566.069 140.877 566.948 142.211 568.054 143.318C569.194 144.424 570.495 145.303 572.025 145.954C573.522 146.605 575.182 146.931 576.94 146.931C578.404 146.931 579.804 146.67 581.106 146.182C582.407 145.661 583.579 145.01 584.588 144.229C584.751 144.099 584.848 143.904 584.848 143.643V136.516C584.848 136.125 584.686 135.93 584.328 135.93H583.481C583.286 135.93 583.156 135.995 583.091 136.093C582.993 136.223 582.961 136.353 582.961 136.516V143.09C582.603 143.35 582.18 143.611 581.724 143.871C581.268 144.099 580.78 144.327 580.227 144.49C579.706 144.652 579.153 144.815 578.599 144.913C578.014 145.01 577.46 145.075 576.907 145.075Z" fill="#040707"/>
<path d="M598.258 133.53V123.748H611.065C611.276 123.748 611.382 123.643 611.382 123.432V122.376C611.382 122.165 611.276 122.059 611.065 122.059H596.745C596.534 122.059 596.428 122.165 596.428 122.376V146.372C596.428 146.583 596.534 146.689 596.745 146.689H611.065C611.276 146.689 611.382 146.583 611.382 146.372V145.317C611.382 145.106 611.276 145 611.065 145H598.258V135.219H608.708C608.919 135.219 609.025 135.113 609.025 134.902V133.846C609.025 133.635 608.919 133.53 608.708 133.53H598.258Z" fill="#040707"/>
<path d="M623.228 146.372C623.228 146.583 623.334 146.689 623.545 146.689H624.741C624.952 146.689 625.058 146.583 625.058 146.372V125.05L641.102 146.443C641.208 146.619 641.384 146.689 641.595 146.689H642.791C643.002 146.689 643.108 146.583 643.108 146.372V122.376C643.108 122.165 643.002 122.059 642.791 122.059H641.595C641.384 122.059 641.278 122.165 641.278 122.376V143.839L625.234 122.306C625.128 122.13 624.952 122.059 624.741 122.059H623.545C623.334 122.059 623.228 122.165 623.228 122.376V146.372Z" fill="#040707"/>
<path d="M677.602 139.771C677.426 139.666 677.285 139.736 677.179 139.912C675.596 143.395 672.324 145.471 667.644 145.471C660.783 145.471 657.018 140.932 657.018 134.353C657.018 127.773 660.783 123.234 667.644 123.234C672.324 123.234 675.631 125.38 677.179 128.864C677.285 129.04 677.426 129.11 677.602 129.004L678.692 128.477C678.868 128.371 678.939 128.23 678.833 128.054C676.863 123.797 672.676 121.545 667.644 121.545C660.572 121.545 655.189 125.943 655.189 134.353C655.189 142.691 660.607 147.16 667.644 147.16C672.676 147.16 676.792 144.979 678.798 140.651C678.903 140.475 678.833 140.334 678.657 140.229L677.602 139.771Z" fill="#040707"/>
<path d="M699.357 135.007L691.23 122.341C691.124 122.165 690.948 122.059 690.737 122.059H689.189C689.013 122.059 688.943 122.165 689.048 122.341L698.443 136.802V146.372C698.443 146.583 698.548 146.689 698.759 146.689H699.956C700.167 146.689 700.272 146.583 700.272 146.372V136.802L709.667 122.341C709.772 122.165 709.702 122.059 709.526 122.059H707.978C707.767 122.059 707.591 122.165 707.485 122.341L699.357 135.007Z" fill="#040707"/>
</svg>
